# xmcd
#
# Track frame offsets:
#	150
#	19172
#	23997
#	29892
#
# Disc length: 455 seconds
#
# Revision: 1
# Processed by: cddbd v1.5.1PL0 Copyright (c) Steve Scherf et al.
# Submitted via: EasyCDDAExtractor 8.0.2.1
#
DISCID=2f01c504
DTITLE=Guy - Dancin' [CD Single)
DYEAR=1999
DGENRE=R&B
TTITLE0=Dancin'
TTITLE1=Love Online (Snippet)
TTITLE2=Why You Wanna Keep Me From My Baby (Snippet)
TTITLE3=Do It (Snippet)
EXTD=
EXTT0=
EXTT1=
EXTT2=
EXTT3=
PLAYORDER=
